<svg width="23" height="25" viewBox="0 0 23 25" fill="none" xmlns="http://www.w3.org/2000/svg">
<path d="M8.87501 20.2917C3.66668 21.8542 3.66668 17.6875 1.58334 17.1667M16.1667 23.4167V19.3854C16.2058 18.8887 16.1386 18.3894 15.9698 17.9206C15.801 17.4519 15.5343 17.0244 15.1875 16.6667C18.4583 16.3021 21.8958 15.0625 21.8958 9.37501C21.8956 7.92066 21.3361 6.52209 20.3333 5.46876C20.8082 4.19637 20.7746 2.78995 20.2396 1.54167C20.2396 1.54167 19.0104 1.17709 16.1667 3.08334C13.7792 2.43628 11.2625 2.43628 8.87501 3.08334C6.03126 1.17709 4.80209 1.54167 4.80209 1.54167C4.26707 2.78995 4.23349 4.19637 4.70834 5.46876C3.69806 6.5299 3.13805 7.94111 3.14584 9.40626C3.14584 15.0521 6.58334 16.2917 9.85418 16.6979C9.51147 17.0521 9.24716 17.4744 9.07846 17.9374C8.90975 18.4005 8.84043 18.8938 8.87501 19.3854V23.4167" stroke="#F5F5F5" stroke-width="1.6" stroke-linecap="round" stroke-linejoin="round"/>
</svg>
