<svg width="23" height="23" viewBox="0 0 23 23" fill="none" xmlns="http://www.w3.org/2000/svg">
<path d="M15.6667 7.83333C17.3243 7.83333 18.914 8.49181 20.0861 9.66391C21.2582 10.836 21.9167 12.4257 21.9167 14.0833V21.375H17.75V14.0833C17.75 13.5308 17.5305 13.0009 17.1398 12.6102C16.7491 12.2195 16.2192 12 15.6667 12C15.1141 12 14.5842 12.2195 14.1935 12.6102C13.8028 13.0009 13.5833 13.5308 13.5833 14.0833V21.375H9.41666V14.0833C9.41666 12.4257 10.0751 10.836 11.2472 9.66391C12.4193 8.49181 14.0091 7.83333 15.6667 7.83333Z" stroke="#F5F5F5" stroke-width="1.6" stroke-linecap="round" stroke-linejoin="round"/>
<path d="M5.24999 8.87499H1.08333V21.375H5.24999V8.87499Z" stroke="#F5F5F5" stroke-width="1.6" stroke-linecap="round" stroke-linejoin="round"/>
<path d="M3.16666 5.74999C4.31725 5.74999 5.24999 4.81725 5.24999 3.66666C5.24999 2.51607 4.31725 1.58333 3.16666 1.58333C2.01607 1.58333 1.08333 2.51607 1.08333 3.66666C1.08333 4.81725 2.01607 5.74999 3.16666 5.74999Z" stroke="#F5F5F5" stroke-width="1.6" stroke-linecap="round" stroke-linejoin="round"/>
</svg>
